<?xml version="1.0" encoding="utf-8"?>
<!-- Generator: Adobe Illustrator 24.2.0, SVG Export Plug-In . SVG Version: 6.00 Build 0)  -->
<svg version="1.1" id="图层_1" xmlns="http://www.w3.org/2000/svg" xmlns:xlink="http://www.w3.org/1999/xlink" x="0px" y="0px"
	 viewBox="0 0 169 38.2" style="enable-background:new 0 0 169 38.2;" xml:space="preserve">
<style type="text/css">
	.st0{fill-rule:evenodd;clip-rule:evenodd;fill:#FFFFFF;}
</style>
<path id="HiquanU" class="st0" d="M54.3,19.5c0.3-2.9,0.4-9,0.2-18.2c0.1-0.6-0.4-1.2-1-1.3c-0.1,0-0.2,0-0.3,0
	c-0.5,0-1,0.2-1.4,0.5c-0.4,0.3-0.6,0.8-0.5,1.3C51.7,5,52,8.2,52,11.4l0.2,8.4c-0.1,0-2.8,0.2-8,0.7c-4.8,0.4-7.2,0.7-7.4,0.8
	c-0.1,0-0.1,0.1-0.1,0.2c0,0.5,1.3,1.3,3.9,2.4c3,1.2,6.1,2.3,9.2,3.1c0.8,0.3,1.7,0.5,2.6,0.6c1.2,0,1.8-0.9,1.8-2.6
	c0-1.8,0-3.2,0-4.1c1.1-0.2,2.3-0.3,3.4-0.5c0.4-0.1,0.7-0.4,0.9-0.7c0.2-0.2,0.3-0.4,0.3-0.6c0-0.1,0-0.1-0.1-0.1
	C57.1,19.1,55.6,19.3,54.3,19.5L54.3,19.5L54.3,19.5z M34.7,6c0-0.5-0.2-0.7-0.5-0.7c-0.4,0.1-0.8,0.3-1,0.7
	c-0.4,0.5-0.7,1.2-0.8,1.9c-0.3,2.6-0.5,4.5-0.6,5.8c-0.2,2.2-0.3,4-0.3,5.5c0,1.6,0.1,3.1,0.3,4.7c0.1,0.1,0.3,0.2,0.5,0.3
	c0.3,0.1,0.6,0.2,0.9,0.2c0.6,0.1,1.1-0.3,1.2-0.8c0-0.1,0-0.2,0-0.3c0-0.1,0-0.2-0.1-0.4c-0.8-5.4-0.6-10.9,0.4-16.2
	C34.7,6.3,34.7,6.2,34.7,6L34.7,6L34.7,6z M52.5,23.9c-0.2,1.3-0.8,2-1.7,1.9c-1.8-0.3-3.7-0.7-5.4-1.3c-1.8-0.5-3.6-1.1-5.4-1.9
	c2.5-0.1,6.7-0.7,12.6-1.6C52.5,22.6,52.5,23.5,52.5,23.9L52.5,23.9L52.5,23.9z M64.7,5.4c-0.1-0.2-0.3-0.4-0.4-0.6
	c-0.1-0.3-0.1-0.7-0.2-1c0-0.3-0.1-0.7-0.3-1c-0.8-0.1-1.6,0.4-2.2,1.5c-0.2,0.4-0.3,0.8-0.3,1.2c0,0.4,0.1,0.7,0.4,1
	c0.3,0.1,0.7,0.1,1.1,0.1c0.7,0,1.5-0.2,2.1-0.6C65,5.8,64.9,5.5,64.7,5.4L64.7,5.4L64.7,5.4z M70.2,20.4c-1.4,0.6-3,0.9-4.6,1
	c-0.8,0-1.6-0.1-2.3-0.4c-0.8-0.2-1.6-0.6-2.1-1.2c-0.6-0.6-0.9-1.4-0.9-2.2c0.1-0.8,0.4-1.5,0.9-2.1c-0.2-0.1-0.4-0.2-0.6-0.2
	c-0.4,0.1-0.7,0.2-1,0.4c-0.3,0.2-0.7,0.4-1.1,0.4c-0.4,0.5-0.7,1.1-0.9,1.7c-0.1,0.2-0.1,0.4-0.1,0.6c0,0.4,0.1,0.7,0.3,1
	c0.2,0.3,0.3,0.6,0.5,0.9c2,1.4,4.3,2,6.7,1.9c1.1,0,2.3-0.1,3.4-0.2c0.3,0,0.7-0.1,1-0.3c0.3-0.2,0.6-0.3,1-0.5L70.2,20.4z
	 M77.6,15.9c-0.3-0.1-0.5-0.2-0.7-0.3c-2.3-0.2-4.4,0.9-6.4,3.3c-0.4,0.7-0.6,1.5-0.6,2.3c0,0.7,0.2,1.4,0.7,1.9
	c0.3,0.4,0.7,0.6,1.2,0.6c0.4,0,0.7-0.1,1.1-0.2s0.7-0.2,1.1-0.2c0.3,0,0.5,0.1,0.8,0.2c0.1,0.4,0.1,0.8,0,1.1
	c-0.1,0.4-0.2,0.7-0.3,1.1c-0.1,0.7-0.3,1.3-0.5,2c-0.2,0.6-0.4,1.3-0.5,2c-0.3,1.1-0.7,2.3-1,3.4c-0.3,1.1-0.6,2.3-0.7,3.5
	c-0.1,0.5-0.2,0.8-0.2,1c-0.1,0.3,0.1,0.5,0.3,0.7c0.4-0.1,0.7-0.2,1-0.5c0.6-0.5,0.9-0.7,0.9-0.7c0.2-0.5,0.3-1,0.3-1.5
	c0.3-2.4,0.8-4.8,1.5-7.1c0.1-0.5,0.2-1,0.2-1.5c0-0.5,0.1-1,0.4-1.5c0.2-0.9,0.4-1.8,0.7-2.7c0-0.4-0.1-0.8,0-1.1
	c0-0.3-0.2-0.6-0.5-0.6c0,0,0,0,0,0c-0.5,0.1-0.9,0.3-1.3,0.5c-0.4,0.3-0.9,0.4-1.4,0.4c-0.2,0-0.4,0-0.6-0.1
	c-0.4-0.1-0.8-0.4-0.9-0.9c0-0.1-0.1-0.3-0.1-0.4c0-0.4,0.2-0.9,0.4-1.2c0.3-0.3,0.5-0.7,0.8-1.1c0.8-0.8,1.9-1.3,3.1-1.3
	c0.3,0,0.5,0.2,0.5,0.5c0,0.2,0.1,0.3,0.1,0.5c0.3,0,0.5-0.1,0.7-0.3c0.3-0.3,0.4-0.8,0.4-1.2C78,16.1,77.8,16,77.6,15.9L77.6,15.9z
	 M92.5,20.5c-1,0.4-2,0.7-3.1,0.7c-0.3,0-0.5,0-0.8-0.1c-0.5-0.2-0.9-0.7-0.9-1.2c0-0.5-0.2-1-0.5-1.5c-0.7,0-1.3,0.4-1.7,0.9
	c-0.4,0.6-1.1,0.9-1.9,1c-0.5,0-0.7-0.4-0.7-1.1v-0.7c0.1-0.5-0.1-0.9-0.5-1.2c-0.6,0-1.1,0.1-1.6,0.3c-0.4,0-0.7,0.3-0.8,0.6
	c0,0.1,0.1,0.2,0.2,0.3c0.1,0.9,0.6,1.8,1.4,2.3c0.8,0.6,1.7,1,2.7,1c0.8-0.1,1.6-0.4,2.2-0.9c0.7,0.7,1.7,1.1,2.7,1.1
	c1.2-0.1,2.4-0.4,3.6-0.9L92.5,20.5z M104.9,21.7c0-0.3-0.1-0.5-0.3-0.4c-0.7,0.1-1.3,0.2-2,0.2c-0.4,0-0.8,0-1.2-0.1
	c-0.8-0.3-1.2-1.1-1.1-1.9v-1.5c0-0.2,0-0.4,0-0.6l-0.4-0.8c-0.7-0.3-1.4-0.5-2.2-0.4c-0.9,0-1.8,0.2-2.7,0.5c-1,0.3-1.8,1-2.3,1.8
	c-0.4,0.6-0.6,1.4-0.6,2.1c-0.1,0.4,0.1,0.8,0.4,1.1c0.7,0.4,1.5,0.6,2.3,0.6c1.1,0,2.2-0.3,3.3-0.7c1.1,0.7,2.4,1,3.7,1
	c1,0,2-0.1,3-0.4C104.8,22.1,104.9,21.9,104.9,21.7L104.9,21.7L104.9,21.7z M97.7,18.6c-0.3,0.1-0.4,0.3-0.5,0.6
	c-0.1,0.4-0.3,0.8-0.4,1.1c-0.2,0.4-0.5,0.7-0.9,0.8c-0.1,0-0.2,0-0.3,0c-0.5,0.1-0.9-0.2-1.1-0.7c0-0.2-0.1-0.3-0.1-0.5
	c0.1-0.6,0.3-1.2,0.6-1.8c0.4-0.5,0.9-0.8,1.5-1c0.6-0.1,1.3,0.1,1.7,0.7C98.1,18.2,97.9,18.5,97.7,18.6L97.7,18.6z M118.1,20.4
	c-1,0.5-2.2,0.7-3.3,0.8c-0.3,0-0.6,0-0.8-0.1c-0.5-0.2-0.9-0.6-1-1.2c0-0.5-0.2-1.1-0.5-1.5c-0.2,0-0.4,0-0.5,0
	c-1.2,0.1-2.2,0.8-2.8,1.7c-0.2,0.2-0.4,0.2-0.7,0.3c-0.2,0-0.4-0.4-0.4-1.1c0.1-0.5-0.1-1.1-0.6-1.4c-1.2-0.1-2.5,0-3.7,0.3
	c0.1,0.3,0.4,0.6,0.7,0.7c0.2,0.1,0.3,0.1,0.5,0.1c0.3,0.2,0.5,0.6,0.5,1c0,0.4,0.1,0.7,0.1,1.1c0.3,0.6,0.9,1,1.6,0.9
	c0.3,0,0.5,0,0.8-0.1c0.4-0.1,0.9-0.2,1.2-0.5c0.4-0.3,0.8-0.4,1.3-0.4c1.1,0.7,2.4,1.1,3.7,1.1c1.5,0,2.9-0.4,4.2-0.9L118.1,20.4z
	 M139.2,7.4c-0.6,0-1.2,1.3-1.7,3.8c-0.5,2.5-0.8,5.1-0.9,7.7c-2.9,4.2-6,6.4-9.2,6.4c-2.3-0.1-4.5-1.1-6.1-2.8
	c-1.5-1.6-2.3-3.7-2.2-5.9c0-0.5,0-0.9,0.1-1.4c0.3-2.3,1-4.5,2.2-6.6c1.2-2.4,3-4.3,5.4-5.6c1-0.5,1.4-0.9,1.4-1.2
	c0-0.3-0.3-0.4-1-0.4c-1.1,0-2.1,0.3-3,0.8c-1.3,0.6-2.5,1.5-3.4,2.7c-1.2,1.6-2.1,3.3-2.6,5.2c-0.6,2-1,4.1-1,6.1
	c0,1.8,0.3,3.7,1,5.4c0.7,1.6,2,3,3.5,4c1.5,1,3.3,1.6,5.1,1.6c3.4,0,6.7-2,9.8-5.9V24c0,0.4,0.1,0.6,0.4,0.6c0.3,0,0.7-0.2,0.9-0.5
	c0.3-0.2,0.5-0.5,0.5-0.9c0-2.1,0-3.6,0.1-4.6c0.6-1.1,1.1-2.3,1.5-3.6c0.5-1.5,0.8-3,0.8-4.5c0.1-0.9-0.2-1.7-0.6-2.5
	C139.9,7.8,139.6,7.5,139.2,7.4L139.2,7.4L139.2,7.4z M139.4,11.8c0,0.9-0.2,1.8-0.5,2.6c-0.1,0.8-0.5,1.5-1.1,2.1
	c0.1-1,0.3-2,0.5-3.1c0.3-1.4,0.6-2.1,0.8-2.1C139.4,11.4,139.4,11.5,139.4,11.8L139.4,11.8z M160.5,13.9h8.5v3h-8.5V13.9z M0,13.9
	h9.5v3H0V13.9z"/>
</svg>
